PathFileType	4	(X/Y/Z)	C:/Users/opensim2020/Desktop/walking_exp_matlab/subject06_walking16_straight_04.trc	
DataRate	CameraRate	NumFrames	NumMarkers	Units	OrigDataRate	OrigDataStartFrame	OrigNumFrames	
100.00	100.00	5	51	mm	100.00	4053	352	
Frame#	Time	LFHD			RFHD			LBHD			RBHD			C7			T10			CLAV			STRN			RBAK			LSHO			LUPA			LELB			LFRM			LWRA			LWRB			LFIN			RSHO			RUPA			RELB			RFRM			RWRA			RWRB			RFIN			LASI			RASI			LPSI			RPSI			LTHI			LKNE			LTIB			LANK			LHEE			LTOE			RTHI			RKNE			RTIB			RANK			RHEE			RTOE			*39			*40			*41			*42			*43			*44			*45			*46			*47			*48			*49			*50			
		X1	Y1	Z1	X2	Y2	Z2	X3	Y3	Z3	X4	Y4	Z4	X5	Y5	Z5	X6	Y6	Z6	X7	Y7	Z7	X8	Y8	Z8	X9	Y9	Z9	X10	Y10	Z10	X11	Y11	Z11	X12	Y12	Z12	X13	Y13	Z13	X14	Y14	Z14	X15	Y15	Z15	X16	Y16	Z16	X17	Y17	Z17	X18	Y18	Z18	X19	Y19	Z19	X20	Y20	Z20	X21	Y21	Z21	X22	Y22	Z22	X23	Y23	Z23	X24	Y24	Z24	X25	Y25	Z25	X26	Y26	Z26	X27	Y27	Z27	X28	Y28	Z28	X29	Y29	Z29	X30	Y30	Z30	X31	Y31	Z31	X32	Y32	Z32	X33	Y33	Z33	X34	Y34	Z34	X35	Y35	Z35	X36	Y36	Z36	X37	Y37	Z37	X38	Y38	Z38	X39	Y39	Z39	X40	Y40	Z40	X41	Y41	Z41	X42	Y42	Z42	X43	Y43	Z43	X44	Y44	Z44	X45	Y45	Z45	X46	Y46	Z46	X47	Y47	Z47	X48	Y48	Z48	X49	Y49	Z49	X50	Y50	Z50	X51	Y51	Z51	

221	2.200	1479.96680	-74.09690	1661.88770	1348.36597	-73.46357	1647.33777	1481.85950	58.74475	1605.01270	1352.76758	58.12069	1596.09985	1421.13599	58.60564	1449.41199	1405.66675	96.14053	1120.10901	1426.97302	-47.78868	1369.13550	1430.54663	-82.90961	1194.33142	1329.76355	127.48420	1282.46436	1585.17310	18.75488	1398.91809	1655.27051	56.09300	1200.03821	1667.85608	78.14439	1090.41687	1694.93945	72.82952	941.06030	1656.89709	23.37376	819.13275	1692.57568	85.99787	822.21613	1692.97424	56.63643	735.43542	1263.60486	-19.99672	1406.16577	1166.95630	8.51228	1209.86377	1153.36145	-5.98298	1088.58875	1141.78760	-41.84959	973.83459	1186.82959	-121.19888	849.98163	1139.43958	-74.05067	840.30621	1145.55273	-124.93049	773.44049	1524.49316	-81.80148	967.34424	1304.94910	-86.20409	963.95044	1495.51440	76.39414	986.61810	1326.50208	65.87098	989.33417	1598.49023	-80.23772	657.95190	1571.90247	-139.29495	506.97562	1571.35193	-176.69066	256.13370	1537.05518	-229.87495	89.88744	1489.70508	-198.99533	63.29218	1538.05713	-375.95926	99.83289	1263.82886	-7.22348	629.17786	1287.68213	8.35035	503.86066	1296.35596	108.73352	253.99785	1341.58057	165.71555	75.08595	1385.60718	210.13400	53.01603	1344.47632	17.18946	38.38278	1419.75183	27.39069	1696.48425																																	 
222	2.210	1480.89917	-80.52858	1660.62024	1349.29553	-79.89082	1646.26843	1482.87659	52.13913	1603.60706	1353.75623	51.59210	1594.91235	1421.75635	51.82182	1448.20935	1406.13464	89.75414	1119.01892	1427.67725	-54.30662	1367.83777	1431.01526	-89.40636	1193.17004	1330.24207	120.99961	1281.55811	1585.68127	12.45710	1397.44849	1655.34705	51.43238	1198.98376	1667.73474	74.44269	1089.46570	1694.80273	70.26805	940.05511	1657.07690	21.24978	817.90979	1692.11462	84.10707	821.27637	1692.95227	55.02090	734.35645	1264.28149	-26.75109	1405.10632	1167.49146	1.64170	1208.87195	1153.87097	-12.74770	1087.57458	1142.32397	-48.57313	972.80554	1187.40466	-127.33949	848.62506	1139.89978	-80.56347	839.23517	1146.01331	-131.26790	772.28601	1524.60718	-88.62256	966.51093	1305.12744	-92.39633	962.86200	1496.18738	69.75382	985.54553	1327.08191	59.64522	988.12341	1599.03674	-88.10876	657.45129	1571.94519	-146.74866	506.85345	1571.96326	-187.03183	255.96890	1537.73438	-242.65443	90.41437	1490.53870	-212.46217	63.10601	1538.20325	-388.73093	102.22887	1264.52747	-13.12540	628.01898	1288.40796	2.55778	502.64780	1296.93005	105.78947	253.81676	1341.74512	165.20547	75.68162	1385.74182	209.79903	53.81641	1344.65527	16.95427	38.32723	1420.91260	20.85850	1695.22058																																	 
223	2.220	1481.96716	-87.31884	1659.32019	1350.33813	-86.45626	1645.13708	1483.98181	45.49305	1602.18750	1354.58362	44.95535	1593.46509	1422.41943	45.05009	1447.06116	1406.70239	83.51231	1117.96985	1428.42859	-60.90997	1366.60156	1431.53735	-95.82269	1191.90503	1330.73999	114.35763	1280.66382	1586.42224	6.31212	1396.14636	1655.46484	46.45354	1197.86597	1667.59644	70.37347	1088.47729	1694.18652	67.40811	938.74286	1657.55981	18.49038	816.66602	1691.58289	81.86753	820.28314	1692.94080	53.12168	733.26532	1265.00659	-33.53672	1404.05420	1168.09741	-5.15207	1207.84326	1154.53333	-19.60608	1086.55164	1142.91614	-55.19217	971.70990	1187.95081	-134.05484	847.57605	1140.36194	-86.87148	838.09631	1146.54321	-137.60088	771.08569	1524.83020	-95.36296	965.68848	1305.42993	-98.52232	961.75616	1496.82837	63.14456	984.44482	1327.66541	53.47228	986.87921	1599.30664	-95.75420	656.81738	1571.68164	-154.46953	506.82144	1572.39404	-196.84914	255.70024	1538.29053	-254.33905	90.69262	1491.07336	-224.12566	63.23274	1538.69177	-400.43924	103.95197	1265.36938	-19.16208	626.83905	1289.28699	-3.51072	501.49615	1297.54626	102.60432	253.62440	1341.89929	164.53690	76.32703	1385.91028	209.48650	54.67447	1344.83167	16.68619	38.24494	1422.10107	14.34570	1693.93652																																	 
224	2.230	1483.03381	-93.97132	1658.00061	1351.39880	-93.00561	1644.05200	1485.16223	38.71718	1600.77576	1355.69470	38.39800	1592.31396	1423.21338	38.34631	1445.92749	1407.18579	77.31374	1116.94995	1429.13232	-67.55434	1365.27747	1432.05945	-102.29837	1190.68542	1331.24963	107.76050	1279.77820	1587.09875	-0.11727	1394.83252	1655.60364	41.16994	1196.70837	1667.39685	65.89632	1087.44238	1694.06848	64.07671	937.72797	1657.97498	15.42034	815.38641	1691.06677	79.21504	819.26044	1692.93323	50.81774	732.19257	1265.75244	-40.43621	1402.97034	1168.81689	-12.05275	1206.80127	1155.19763	-26.42867	1085.53662	1143.55408	-61.77349	970.64203	1188.66687	-140.24214	846.23230	1140.91895	-93.27590	836.99231	1147.13232	-143.96971	769.88202	1525.18188	-102.13368	964.84021	1305.80310	-104.67086	960.67096	1497.51221	56.63628	983.32196	1328.29724	47.32547	985.56268	1599.10327	-103.98307	656.52429	1571.43713	-162.33041	506.72110	1572.81604	-206.10558	255.37059	1538.67273	-265.29684	90.95150	1491.32715	-235.06282	63.13763	1539.32092	-411.04474	105.27508	1266.27490	-25.49783	625.57349	1290.15283	-9.54534	500.22311	1298.12573	99.33768	253.41852	1342.00659	163.79916	77.10113	1385.82263	209.04736	55.81913	1345.06079	16.38391	38.16943	1423.40186	7.70400	1692.65784																																	 
225	2.240	1484.16431	-100.75375	1656.70349	1352.48901	-99.54626	1642.96313	1486.42590	31.87880	1599.38635	1356.86267	31.75442	1591.14282	1423.85767	31.55067	1444.77527	1407.74646	71.06227	1115.91943	1429.93872	-74.32648	1364.00354	1432.69397	-108.81489	1189.40454	1331.75220	101.12910	1278.94482	1587.82886	-6.63414	1393.49841	1655.76367	35.64489	1195.50427	1667.26086	61.09698	1086.42432	1694.09351	60.29087	936.80780	1658.28723	12.00622	814.05756	1690.64856	76.24342	818.27411	1692.87158	48.20219	731.07941	1266.58862	-47.37372	1401.91858	1169.47803	-18.92164	1205.77795	1155.92834	-33.20830	1084.50281	1144.27515	-68.36774	969.54132	1189.31042	-146.50060	844.94592	1141.73169	-99.73769	835.84381	1147.71448	-150.02574	768.61151	1525.64014	-108.83813	964.03082	1306.26636	-110.78381	959.64178	1498.23254	50.15437	982.15222	1329.03247	41.30694	984.24500	1599.00232	-111.80906	655.96735	1571.36707	-170.08768	506.47580	1573.11829	-214.87695	254.87912	1538.97998	-274.78979	90.64944	1491.59961	-245.11630	62.82001	1539.97278	-420.84116	105.81801	1267.06958	-31.58801	624.43323	1291.13684	-15.86772	498.98926	1298.64331	95.98701	253.28589	1342.05469	163.09352	78.06057	1385.85767	208.64436	57.07131	1345.28662	16.12487	38.19021	1424.73547	1.11938	1691.35156																																	 
